# xmcd
#
# Track frame offsets:
#	150
#	10754
#	23156
#	33777
#	47122
#	57379
#	67433
#	78010
#	87481
#	99792
#	111347
#	121021
#	132274
#	142073
#	155804
#
# Disc length: 2242 seconds
#
# Revision: 0
# Processed by: cddbd v1.5.2PL0 Copyright (c) Steve Scherf et al.
# Submitted via: EZCDAudioConverter 1.1.0.1
#
DISCID=c708c00f
DTITLE=Hi-Fly Rangers - Another gear
DYEAR=2013
DGENRE=
TTITLE0=Misery train
TTITLE1=Skyfall
TTITLE2=Come to your daddy
TTITLE3=Wild wild lover
TTITLE4=There is no right way
TTITLE5=Don't you love me
TTITLE6=No stranger to me
TTITLE7=Goodbye baby
TTITLE8=Out of my mind
TTITLE9=Where did you stay last night
TTITLE10=(I've changed my) wild mind
TTITLE11=Dog-tired
TTITLE12=Another gear
TTITLE13=Please, baby, please
TTITLE14=You walk away
EXTD=
EXTT0=
EXTT1=
EXTT2=
EXTT3=
EXTT4=
EXTT5=
EXTT6=
EXTT7=
EXTT8=
EXTT9=
EXTT10=
EXTT11=
EXTT12=
EXTT13=
EXTT14=
PLAYORDER=
